<mxfile host="Electron" agent="Mozilla/5.0 (Windows NT 10.0; Win64; x64) AppleWebKit/537.36 (KHTML, like Gecko) draw.io/24.7.17 Chrome/128.0.6613.36 Electron/32.0.1 Safari/537.36" version="24.7.17">
  <diagram name="Page-1" id="8CCe6OCv-EtFc_HfqUoe">
    <mxGraphModel dx="2280" dy="1937" grid="1" gridSize="10" guides="1" tooltips="1" connect="1" arrows="1" fold="1" page="1" pageScale="1" pageWidth="850" pageHeight="1100" math="0" shadow="0">
      <root>
        <mxCell id="0" />
        <mxCell id="1" parent="0" />
        <mxCell id="4qzTmG3llHrawzFMcoOG-72" value="" style="rounded=1;whiteSpace=wrap;html=1;fillColor=none;dashed=1;" parent="1" vertex="1">
          <mxGeometry x="-40" y="-40" width="210" height="160" as="geometry" />
        </mxCell>
        <mxCell id="4qzTmG3llHrawzFMcoOG-32" value="" style="rounded=0;whiteSpace=wrap;html=1;dashed=1;fillColor=none;" parent="1" vertex="1">
          <mxGeometry width="82" height="38" as="geometry" />
        </mxCell>
        <mxCell id="4qzTmG3llHrawzFMcoOG-23" value="" style="rounded=1;whiteSpace=wrap;html=1;fillColor=none;absoluteArcSize=1;arcSize=26;imageHeight=24;" parent="1" vertex="1">
          <mxGeometry width="82" height="38" as="geometry" />
        </mxCell>
        <mxCell id="4qzTmG3llHrawzFMcoOG-73" value="Base" style="text;html=1;align=left;verticalAlign=middle;whiteSpace=wrap;rounded=0;" parent="1" vertex="1">
          <mxGeometry x="-10" y="-40" width="150" height="30" as="geometry" />
        </mxCell>
        <mxCell id="4qzTmG3llHrawzFMcoOG-33" value="0" style="text;html=1;align=center;verticalAlign=middle;whiteSpace=wrap;rounded=0;fontSize=10;" parent="1" vertex="1">
          <mxGeometry x="-10" y="-10" width="10" height="10" as="geometry" />
        </mxCell>
        <mxCell id="4qzTmG3llHrawzFMcoOG-34" value="" style="shape=partialRectangle;whiteSpace=wrap;html=1;top=0;bottom=0;fillColor=none;dashed=1;" parent="1" vertex="1">
          <mxGeometry y="38" width="82" height="50" as="geometry" />
        </mxCell>
        <mxCell id="4qzTmG3llHrawzFMcoOG-35" value="41" style="text;html=1;align=center;verticalAlign=middle;whiteSpace=wrap;rounded=0;" parent="1" vertex="1">
          <mxGeometry y="48" width="82" height="30" as="geometry" />
        </mxCell>
        <mxCell id="4qzTmG3llHrawzFMcoOG-36" value="" style="endArrow=classic;startArrow=classic;html=1;rounded=0;exitX=0;exitY=0.75;exitDx=0;exitDy=0;" parent="1" edge="1">
          <mxGeometry width="50" height="50" relative="1" as="geometry">
            <mxPoint y="48" as="sourcePoint" />
            <mxPoint x="82" y="48" as="targetPoint" />
          </mxGeometry>
        </mxCell>
        <mxCell id="4qzTmG3llHrawzFMcoOG-37" value="" style="shape=partialRectangle;whiteSpace=wrap;html=1;top=0;bottom=0;fillColor=none;dashed=1;direction=south;" parent="1" vertex="1">
          <mxGeometry x="82" width="50" height="38" as="geometry" />
        </mxCell>
        <mxCell id="4qzTmG3llHrawzFMcoOG-38" value="" style="endArrow=classic;startArrow=classic;html=1;rounded=0;" parent="1" edge="1">
          <mxGeometry width="50" height="50" relative="1" as="geometry">
            <mxPoint x="92" y="38" as="sourcePoint" />
            <mxPoint x="92" as="targetPoint" />
          </mxGeometry>
        </mxCell>
        <mxCell id="4qzTmG3llHrawzFMcoOG-39" value="19" style="text;html=1;align=center;verticalAlign=middle;whiteSpace=wrap;rounded=0;" parent="1" vertex="1">
          <mxGeometry x="92" width="40" height="38" as="geometry" />
        </mxCell>
        <mxCell id="4qzTmG3llHrawzFMcoOG-42" value="" style="endArrow=none;html=1;rounded=0;" parent="1" edge="1">
          <mxGeometry width="50" height="50" relative="1" as="geometry">
            <mxPoint x="13" y="8" as="sourcePoint" />
            <mxPoint x="13" y="18" as="targetPoint" />
          </mxGeometry>
        </mxCell>
        <mxCell id="4qzTmG3llHrawzFMcoOG-43" value="" style="endArrow=none;html=1;rounded=0;" parent="1" edge="1">
          <mxGeometry width="50" height="50" relative="1" as="geometry">
            <mxPoint x="8" y="13" as="sourcePoint" />
            <mxPoint x="18" y="13" as="targetPoint" />
          </mxGeometry>
        </mxCell>
        <mxCell id="4qzTmG3llHrawzFMcoOG-51" value="" style="endArrow=none;html=1;rounded=0;" parent="1" edge="1">
          <mxGeometry width="50" height="50" relative="1" as="geometry">
            <mxPoint x="13" y="20" as="sourcePoint" />
            <mxPoint x="13" y="30" as="targetPoint" />
          </mxGeometry>
        </mxCell>
        <mxCell id="4qzTmG3llHrawzFMcoOG-52" value="" style="endArrow=none;html=1;rounded=0;" parent="1" edge="1">
          <mxGeometry width="50" height="50" relative="1" as="geometry">
            <mxPoint x="8" y="25" as="sourcePoint" />
            <mxPoint x="18" y="25" as="targetPoint" />
          </mxGeometry>
        </mxCell>
        <mxCell id="vn_-5WvART5QMK_FJGDS-2" value="" style="endArrow=none;html=1;rounded=0;" edge="1" parent="1">
          <mxGeometry width="50" height="50" relative="1" as="geometry">
            <mxPoint x="69" y="8" as="sourcePoint" />
            <mxPoint x="69" y="18" as="targetPoint" />
          </mxGeometry>
        </mxCell>
        <mxCell id="vn_-5WvART5QMK_FJGDS-3" value="" style="endArrow=none;html=1;rounded=0;" edge="1" parent="1">
          <mxGeometry width="50" height="50" relative="1" as="geometry">
            <mxPoint x="64" y="13" as="sourcePoint" />
            <mxPoint x="74" y="13" as="targetPoint" />
          </mxGeometry>
        </mxCell>
        <mxCell id="vn_-5WvART5QMK_FJGDS-4" value="" style="endArrow=none;html=1;rounded=0;" edge="1" parent="1">
          <mxGeometry width="50" height="50" relative="1" as="geometry">
            <mxPoint x="69" y="20" as="sourcePoint" />
            <mxPoint x="69" y="30" as="targetPoint" />
          </mxGeometry>
        </mxCell>
        <mxCell id="vn_-5WvART5QMK_FJGDS-5" value="" style="endArrow=none;html=1;rounded=0;" edge="1" parent="1">
          <mxGeometry width="50" height="50" relative="1" as="geometry">
            <mxPoint x="64" y="25" as="sourcePoint" />
            <mxPoint x="74" y="25" as="targetPoint" />
          </mxGeometry>
        </mxCell>
      </root>
    </mxGraphModel>
  </diagram>
</mxfile>
